<svg width="508" height="88" viewBox="0 0 508 88" fill="none" xmlns="http://www.w3.org/2000/svg">
<path d="M53.8531 46.1526C53.648 50.6057 52.4469 54.5461 50.2496 57.9738C48.0523 61.3723 44.9615 64.009 40.9771 65.884C37.0221 67.759 32.4957 68.6965 27.398 68.6965C18.9898 68.6965 12.3687 65.9572 7.53476 60.4787C2.70078 55.0002 0.283783 47.2658 0.283783 37.2756V34.1115C0.283783 27.842 1.36777 22.3635 3.53574 17.676C5.733 12.9592 8.88242 9.32639 12.984 6.77756C17.0855 4.19943 21.8316 2.91037 27.2223 2.91037C34.9859 2.91037 41.2262 4.96115 45.943 9.06271C50.6598 13.135 53.3404 18.76 53.985 25.9377H38.6041C38.4869 22.0412 37.5055 19.2434 35.6598 17.5442C33.8141 15.8449 31.0016 14.9953 27.2223 14.9953C23.3844 14.9953 20.5719 16.4309 18.7848 19.302C16.9977 22.1731 16.0602 26.758 15.9723 33.0569V37.5832C15.9723 44.4094 16.8219 49.2873 18.5211 52.217C20.2496 55.1467 23.2086 56.6115 27.398 56.6115C30.943 56.6115 33.6529 55.7766 35.5279 54.1067C37.4029 52.4367 38.399 49.7854 38.5162 46.1526H53.8531ZM60.3992 43.6037C60.3992 38.8576 61.3221 34.6389 63.1678 30.9475C65.0135 27.2268 67.6648 24.3703 71.1219 22.3781C74.5789 20.386 78.6365 19.3899 83.2947 19.3899C90.4139 19.3899 96.0242 21.6018 100.126 26.0256C104.227 30.4201 106.278 36.4113 106.278 43.9992V44.5266C106.278 51.9387 104.213 57.8274 100.082 62.1926C95.9803 66.5285 90.4139 68.6965 83.3826 68.6965C76.615 68.6965 71.1805 66.675 67.0789 62.632C62.9773 58.5598 60.7654 53.052 60.4432 46.1086L60.3992 43.6037ZM75.2088 44.5266C75.2088 48.9211 75.8973 52.1438 77.2742 54.1945C78.6512 56.2453 80.6873 57.2707 83.3826 57.2707C88.6561 57.2707 91.3514 53.2131 91.4686 45.0979V43.6037C91.4686 35.0783 88.7439 30.8156 83.2947 30.8156C78.3436 30.8156 75.6629 34.4924 75.2527 41.8459L75.2088 44.5266ZM112.736 43.6916C112.736 36.1623 114.362 30.2297 117.614 25.8938C120.866 21.5578 125.407 19.3899 131.237 19.3899C135.485 19.3899 139.06 21.0598 141.96 24.3996V0.317596H156.813V67.8176H143.498L142.751 62.7199C139.704 66.7043 135.837 68.6965 131.149 68.6965C125.495 68.6965 121.013 66.5285 117.702 62.1926C114.392 57.8567 112.736 51.6897 112.736 43.6916ZM127.546 44.6145C127.546 53.052 130.007 57.2707 134.929 57.2707C138.21 57.2707 140.554 55.8938 141.96 53.1399V35.0344C140.612 32.2219 138.298 30.8156 135.017 30.8156C130.446 30.8156 127.971 34.507 127.59 41.8899L127.546 44.6145ZM190.034 68.6965C182.739 68.6965 176.836 66.5285 172.324 62.1926C167.813 57.8274 165.557 52.1584 165.557 45.1858V43.9553C165.557 39.092 166.45 34.8 168.237 31.0793C170.054 27.3586 172.691 24.4875 176.148 22.466C179.605 20.4153 183.706 19.3899 188.452 19.3899C195.132 19.3899 200.405 21.4699 204.273 25.6301C208.14 29.761 210.073 35.5324 210.073 42.9445V48.7014H180.63C181.157 51.3674 182.315 53.4621 184.102 54.9856C185.889 56.509 188.203 57.2707 191.045 57.2707C195.733 57.2707 199.395 55.6301 202.031 52.3488L208.799 60.3469C206.953 62.8957 204.331 64.9319 200.933 66.4553C197.564 67.9494 193.931 68.6965 190.034 68.6965ZM188.364 30.8156C184.029 30.8156 181.45 33.6867 180.63 39.4289H195.571V38.2863C195.63 35.9133 195.029 34.0822 193.77 32.7932C192.51 31.4748 190.708 30.8156 188.364 30.8156Z" fill="#38B6FF"/>
<path d="M260.125 44.5705C260.125 51.8362 258.455 57.6809 255.116 62.1047C251.776 66.4992 247.293 68.6965 241.668 68.6965C235.662 68.6965 231.019 66.5725 227.738 62.3244L227.342 67.8176H219.871V0.317596H228.001V25.4983C231.283 21.426 235.809 19.3899 241.58 19.3899C247.352 19.3899 251.878 21.5725 255.16 25.9377C258.47 30.3029 260.125 36.2795 260.125 43.8674V44.5705ZM251.995 43.6477C251.995 38.1106 250.926 33.8332 248.787 30.8156C246.649 27.7981 243.573 26.2893 239.559 26.2893C234.198 26.2893 230.345 28.7795 228.001 33.76V54.3264C230.492 59.3069 234.373 61.7971 239.647 61.7971C243.543 61.7971 246.576 60.2883 248.744 57.2707C250.912 54.2531 251.995 49.7121 251.995 43.6477ZM301.564 63.1154C298.4 66.8362 293.756 68.6965 287.633 68.6965C282.565 68.6965 278.698 67.2317 276.032 64.302C273.395 61.343 272.062 56.9778 272.033 51.2063V20.2688H280.163V50.9865C280.163 58.1936 283.092 61.7971 288.952 61.7971C295.163 61.7971 299.294 59.4826 301.344 54.8537V20.2688H309.474V67.8176H301.74L301.564 63.1154ZM321.689 43.6477C321.689 36.3528 323.418 30.4934 326.875 26.0695C330.332 21.6164 334.858 19.3899 340.454 19.3899C346.02 19.3899 350.429 21.2942 353.681 25.1028V0.317596H361.811V67.8176H354.341L353.945 62.7199C350.693 66.7043 346.167 68.6965 340.366 68.6965C334.858 68.6965 330.361 66.4406 326.875 61.9289C323.418 57.4172 321.689 51.5285 321.689 44.2629V43.6477ZM329.819 44.5705C329.819 49.9612 330.932 54.1799 333.159 57.2268C335.386 60.2737 338.462 61.7971 342.387 61.7971C347.544 61.7971 351.308 59.4826 353.681 54.8537V33.0129C351.25 28.5305 347.514 26.2893 342.475 26.2893C338.491 26.2893 335.386 27.8274 333.159 30.9035C330.932 33.9797 329.819 38.5354 329.819 44.5705ZM374.29 43.6477C374.29 36.3528 376.019 30.4934 379.476 26.0695C382.933 21.6164 387.459 19.3899 393.055 19.3899C398.621 19.3899 403.03 21.2942 406.282 25.1028V0.317596H414.412V67.8176H406.941L406.546 62.7199C403.294 66.7043 398.768 68.6965 392.967 68.6965C387.459 68.6965 382.962 66.4406 379.476 61.9289C376.019 57.4172 374.29 51.5285 374.29 44.2629V43.6477ZM382.42 44.5705C382.42 49.9612 383.533 54.1799 385.76 57.2268C387.986 60.2737 391.062 61.7971 394.988 61.7971C400.145 61.7971 403.909 59.4826 406.282 54.8537V33.0129C403.851 28.5305 400.115 26.2893 395.076 26.2893C391.092 26.2893 387.986 27.8274 385.76 30.9035C383.533 33.9797 382.42 38.5354 382.42 44.5705ZM444.425 55.9084L455.499 20.2688H464.2L445.084 75.1565C442.125 83.0666 437.423 87.0217 430.978 87.0217L429.44 86.8899L426.407 86.3186V79.7268L428.605 79.9026C431.359 79.9026 433.497 79.3459 435.021 78.2326C436.573 77.1194 437.848 75.0832 438.844 72.1242L440.646 67.2903L423.683 20.2688H432.56L444.425 55.9084ZM507.573 74.4533H467.319V67.8176H507.573V74.4533Z" fill="#504949"/>
</svg>
